<?xml version="1.0" encoding="UTF-8" standalone="no"?>
<svg
   xmlns:dc="http://purl.org/dc/elements/1.1/"
   xmlns:cc="http://creativecommons.org/ns#"
   xmlns:rdf="http://www.w3.org/1999/02/22-rdf-syntax-ns#"
   xmlns:svg="http://www.w3.org/2000/svg"
   xmlns="http://www.w3.org/2000/svg"
   xmlns:sodipodi="http://sodipodi.sourceforge.net/DTD/sodipodi-0.dtd"
   xmlns:inkscape="http://www.inkscape.org/namespaces/inkscape"
   id="Layer_1"
   data-name="Layer 1"
   viewBox="0 0 205 205"
   version="1.1"
   sodipodi:docname="PrivateStorageLogo.svg"
   width="205"
   height="205"
   inkscape:version="0.92.1 r15371"
   inkscape:export-filename="/home/user/code/gridsync/gridsync/resources/PrivateStorageLogo.png"
   inkscape:export-xdpi="480.49741"
   inkscape:export-ydpi="480.49741">
  <metadata
     id="metadata55">
    <rdf:RDF>
      <cc:Work
         rdf:about="">
        <dc:format>image/svg+xml</dc:format>
        <dc:type
           rdf:resource="http://purl.org/dc/dcmitype/StillImage" />
        <dc:title>PrivateStorage_Logo_RGB_Stacked</dc:title>
      </cc:Work>
    </rdf:RDF>
  </metadata>
  <sodipodi:namedview
     pagecolor="#ffffff"
     bordercolor="#666666"
     borderopacity="1"
     objecttolerance="10"
     gridtolerance="10"
     guidetolerance="10"
     inkscape:pageopacity="0"
     inkscape:pageshadow="2"
     inkscape:window-width="1916"
     inkscape:window-height="1036"
     id="namedview53"
     showgrid="false"
     inkscape:zoom="3.2626978"
     inkscape:cx="14.276863"
     inkscape:cy="102.294"
     inkscape:window-x="2"
     inkscape:window-y="42"
     inkscape:window-maximized="0"
     inkscape:current-layer="Layer_1" />
  <defs
     id="defs4">
    <style
       id="style2">.cls-1{fill:#9ba2b5;}.cls-2{fill:#38466d;}.cls-3{fill:#837dba;}.cls-4{fill:#14b1e6;}.cls-5{fill:#fdbd4e;}</style>
  </defs>
  <title
     id="title6">PrivateStorage_Logo_RGB_Stacked</title>
  <path
     class="cls-1"
     d="M 164.08762,0.41201025 H 102.5 L 89.40909,52.775652 115.59091,92.048372 102.5,144.412 h 61.58762 A 10.41234,10.41234 0 0 0 174.5,133.99962 V 10.824302 A 10.41232,10.41232 0 0 0 164.08762,0.41201025 Z"
     id="path8"
     inkscape:connector-curvature="0"
     style="fill:#9ba2b5" />
  <path
     class="cls-2"
     d="M 89.40909,52.775652 102.5,0.41201025 H 40.91238 A 10.41232,10.41232 0 0 0 30.5,10.824302 V 133.99962 A 10.41234,10.41234 0 0 0 40.91238,144.412 H 102.5 l 13.09091,-52.363628 z"
     id="path10"
     inkscape:connector-curvature="0"
     style="fill:#38466d" />
  <path
     class="cls-2"
     d="m 117.514,123.4683 c 0.15323,0.0946 0.31365,0.17809 0.46768,0.27148 0.11186,0.0775 0.21369,0.16806 0.32813,0.2421 0.37216,0.201 0.7365,0.41424 1.09526,0.63592 0.12455,0.0645 0.2587,0.11159 0.38547,0.17223 a 12.93737,12.93737 0 0 0 11.62482,-0.17223 c 0.35876,-0.22168 0.7231,-0.43493 1.09526,-0.63592 a 13.05082,13.05082 0 0 0 0.32768,-21.73447 q -0.89341,-0.54145 -1.80832,-1.0498 a 12.84355,12.84355 0 0 0 -11.23953,0 q -0.91539,0.50763 -1.80832,1.0498 c -0.15421,0.0935 -0.31481,0.177 -0.46813,0.27176 -0.22878,0.11843 -0.46529,0.22327 -0.69745,0.33576 l -4.61834,18.47336 a 32.68063,32.68063 0 0 1 5.31579,2.14001 z"
     id="path12"
     inkscape:connector-curvature="0"
     style="fill:#38466d" />
  <path
     class="cls-2"
     d="m 155.41859,61.423912 c -0.37216,-0.201 -0.73651,-0.41424 -1.09526,-0.63592 a 12.93709,12.93709 0 0 0 -11.62491,-0.17214 q -0.91539,0.50763 -1.80833,1.0498 c -0.15421,0.0935 -0.31481,0.177 -0.46813,0.27175 a 32.88425,32.88425 0 0 1 -6.20028,2.43706 32.17752,32.17752 0 0 1 -17.62518,0 32.88425,32.88425 0 0 1 -6.20028,-2.43706 c -0.15332,-0.0947 -0.31392,-0.17827 -0.46813,-0.27175 q -0.89342,-0.54146 -1.80833,-1.0498 a 12.98078,12.98078 0 0 0 -5.61976,-1.29475 12.82179,12.82179 0 0 0 -4.30185,0.74716 l 14.51285,21.76935 a 33.43726,33.43726 0 0 1 3.88547,-1.388 32.17752,32.17752 0 0 1 17.62518,0 32.87789,32.87789 0 0 1 6.20028,2.437 c 0.15324,0.0946 0.31366,0.17809 0.46769,0.27148 q 0.89328,0.54161 1.80815,1.04981 a 12.93651,12.93651 0 0 0 11.62553,-0.17188 c 0.35875,-0.22159 0.7231,-0.43483 1.09526,-0.63583 a 13.07273,13.07273 0 0 0 0,-21.9762 z"
     id="path14"
     inkscape:connector-curvature="0"
     style="fill:#38466d" />
  <path
     class="cls-2"
     d="m 102.50115,38.637422 a 32.41324,32.41324 0 0 1 8.81259,1.23029 32.87731,32.87731 0 0 1 6.20029,2.437 c 0.15323,0.0946 0.31365,0.17809 0.46768,0.27148 0.11186,0.0775 0.21369,0.16806 0.32813,0.2421 0.37216,0.201 0.7365,0.41424 1.09526,0.63583 0.12429,0.0644 0.25825,0.11133 0.38476,0.17188 a 12.843,12.843 0 0 0 11.24077,0 c 0.12651,-0.0606 0.26047,-0.10751 0.38476,-0.17188 0.35876,-0.22159 0.7231,-0.43484 1.09526,-0.63583 0.11444,-0.074 0.21627,-0.1646 0.32813,-0.2421 a 13.05077,13.05077 0 0 0 -0.32813,-21.73411 c -0.37216,-0.201 -0.7365,-0.41424 -1.09526,-0.63592 a 12.93717,12.93717 0 0 0 -11.62491,-0.17214 c -0.12668,0.0606 -0.26092,0.10769 -0.38538,0.17214 -0.35876,0.22168 -0.7231,0.43493 -1.09526,0.63592 -0.11426,0.074 -0.21591,0.16433 -0.32768,0.24175 -0.15421,0.0935 -0.31481,0.177 -0.46813,0.27175 a 32.88431,32.88431 0 0 1 -6.20029,2.437 32.41285,32.41285 0 0 1 -8.81259,1.23029 c -0.74263,0 -1.47753,-0.0298 -2.20543,-0.0847 l -3.56037,14.24157 a 32.02761,32.02761 0 0 1 5.7658,-0.54233 z"
     id="path16"
     inkscape:connector-curvature="0"
     style="fill:#38466d" />
  <path
     class="cls-3"
     d="m 102.50124,106.18651 a 32.41285,32.41285 0 0 1 -8.81259,-1.23029 32.88422,32.88422 0 0 1 -6.20028,-2.437 c -0.15332,-0.0947 -0.31392,-0.17827 -0.46813,-0.27176 -0.11177,-0.0774 -0.21342,-0.16779 -0.32768,-0.24174 -0.37216,-0.201 -0.73651,-0.41424 -1.09526,-0.63592 -0.12447,-0.0645 -0.2587,-0.1115 -0.38539,-0.17214 a 12.84353,12.84353 0 0 0 -11.23952,0 c -0.12669,0.0606 -0.26092,0.10769 -0.38539,0.17214 -0.35875,0.22168 -0.7231,0.43493 -1.09526,0.63592 -0.11425,0.0739 -0.21591,0.16433 -0.32768,0.24174 a 13.05082,13.05082 0 0 0 0.32768,21.73447 c 0.37216,0.201 0.73651,0.41424 1.09526,0.63592 a 12.93739,12.93739 0 0 0 11.62483,0.17223 c 0.12677,-0.0606 0.26092,-0.10778 0.38547,-0.17223 0.35875,-0.22168 0.7231,-0.43493 1.09526,-0.63592 0.11444,-0.074 0.21626,-0.1646 0.32813,-0.2421 0.154,-0.0934 0.31445,-0.17685 0.46768,-0.27148 a 32.87722,32.87722 0 0 1 6.20028,-2.437 32.41285,32.41285 0 0 1 8.81259,-1.23029 c 0.74175,0 1.47586,0.0298 2.203,0.0846 l 3.56028,-14.241 a 32.02688,32.02688 0 0 1 -5.76328,0.54185 z"
     id="path18"
     inkscape:connector-curvature="0"
     style="fill:#837dba" />
  <path
     class="cls-4"
     d="m 88.40359,64.374462 a 32.17752,32.17752 0 0 1 -17.62518,0 32.88435,32.88435 0 0 1 -6.20029,-2.43706 C 64.4248,61.842702 64.2642,61.759132 64.11,61.665652 q -0.89343,-0.54146 -1.80833,-1.0498 a 12.93709,12.93709 0 0 0 -11.62491,0.17214 c -0.35876,0.22168 -0.7231,0.43492 -1.09526,0.63592 a 13.07273,13.07273 0 0 0 0,21.9762 c 0.37216,0.201 0.7365,0.41424 1.09526,0.63583 a 12.93651,12.93651 0 0 0 11.62553,0.17188 q 0.91526,-0.50776 1.80815,-1.04981 c 0.154,-0.0934 0.31445,-0.17684 0.46768,-0.27148 a 32.878,32.878 0 0 1 6.20029,-2.437 32.17752,32.17752 0 0 1 17.62518,0 32.87789,32.87789 0 0 1 6.20028,2.437 c 0.15323,0.0946 0.31365,0.17809 0.46769,0.27148 q 0.89328,0.54161 1.80815,1.04981 a 12.981,12.981 0 0 0 5.62038,1.2951 12.8236,12.8236 0 0 0 4.30176,-0.74725 L 92.289,62.986412 a 33.45253,33.45253 0 0 1 -3.88541,1.38805 z"
     id="path20"
     inkscape:connector-curvature="0"
     style="fill:#14b1e6" />
  <path
     class="cls-5"
     d="m 87.48837,21.355552 c -0.15332,-0.0947 -0.31392,-0.17827 -0.46813,-0.27175 -0.11177,-0.0774 -0.21342,-0.16779 -0.32768,-0.24175 -0.37216,-0.201 -0.73651,-0.41424 -1.09526,-0.63592 -0.12447,-0.0645 -0.2587,-0.1115 -0.38539,-0.17214 A 12.93717,12.93717 0 0 0 73.587,20.206132 c -0.35875,0.22168 -0.7231,0.43493 -1.09526,0.63592 a 13.05077,13.05077 0 0 0 -0.32812,21.73411 c 0.11186,0.0775 0.21369,0.16806 0.32812,0.2421 0.37216,0.201 0.73651,0.41424 1.09526,0.63583 0.12429,0.0644 0.25826,0.11133 0.38477,0.17188 a 12.843,12.843 0 0 0 11.24077,0 c 0.1265,-0.0606 0.26047,-0.10751 0.38476,-0.17188 0.35875,-0.22159 0.7231,-0.43484 1.09526,-0.63583 0.11444,-0.074 0.21626,-0.1646 0.32813,-0.2421 0.154,-0.0934 0.31445,-0.17685 0.46768,-0.27148 0.22789,-0.118 0.46351,-0.2223 0.69478,-0.33443 l 4.61887,-18.47541 a 32.67727,32.67727 0 0 1 -5.31365,-2.13929 z"
     id="path22"
     inkscape:connector-curvature="0"
     style="fill:#fdbd4e" />
  <path
     class="cls-2"
     d="m 35.463,179.72101 v 9.40277 H 30.5 v -26.712 h 8.69 a 15.21036,15.21036 0 0 1 4.63046,0.628 8.9105,8.9105 0 0 1 3.22872,1.75479 6.87321,6.87321 0 0 1 1.882,2.69725 10.0545,10.0545 0 0 1 -0.0371,6.9921 7.37721,7.37721 0 0 1 -1.93712,2.78 9.00623,9.00623 0 0 1 -3.22871,1.81045 14.354,14.354 0 0 1 -4.53832,0.64661 z m 0,-3.8794 h 3.727 a 7.46012,7.46012 0 0 0 2.37983,-0.34173 4.41766,4.41766 0 0 0 1.67871,-0.97906 4.01133,4.01133 0 0 0 0.99662,-1.55171 5.94739,5.94739 0 0 0 0.332,-2.04137 5.39472,5.39472 0 0 0 -0.332,-1.93957 3.83068,3.83068 0 0 0 -0.99662,-1.478 4.4279,4.4279 0 0 0 -1.67871,-0.93267 7.864,7.864 0 0 0 -2.37983,-0.32349 h -3.727 z"
     id="path24"
     inkscape:connector-curvature="0"
     style="fill:#38466d" />
  <path
     class="cls-2"
     d="m 58.52525,178.6865 v 10.43724 h -4.963 v -26.712 h 8.13613 a 16.98237,16.98237 0 0 1 4.67731,0.56336 8.914,8.914 0 0 1 3.19165,1.57955 6.09167,6.09167 0 0 1 1.82645,2.42923 8.52073,8.52073 0 0 1 0.1848,5.66176 7.39191,7.39191 0 0 1 -1.14384,2.18 7.71839,7.71839 0 0 1 -1.845,1.71793 9.65823,9.65823 0 0 1 -2.5003,1.18214 4.91964,4.91964 0 0 1 1.62362,1.53341 l 6.67879,9.8646 h -4.46471 a 2.17258,2.17258 0 0 1 -1.09751,-0.25875 2.23871,2.23871 0 0 1 -0.766,-0.73887 l -5.60854,-8.55309 a 1.98018,1.98018 0 0 0 -0.69187,-0.68346 2.42429,2.42429 0 0 0 -1.11605,-0.20308 z m 0,-3.56524 h 3.09951 a 7.67274,7.67274 0 0 0 2.4447,-0.351 4.72829,4.72829 0 0 0 1.71577,-0.97 3.893,3.893 0 0 0 1.00536,-1.46846 5.08382,5.08382 0 0 0 0.332,-1.86586 3.79643,3.79643 0 0 0 -1.3374,-3.122 6.39452,6.39452 0 0 0 -4.08686,-1.08988 h -3.17312 z"
     id="path26"
     inkscape:connector-curvature="0"
     style="fill:#38466d" />
  <path
     class="cls-2"
     d="m 83.15552,189.12374 h -4.981 v -26.712 h 4.981 z"
     id="path28"
     inkscape:connector-curvature="0"
     style="fill:#38466d" />
  <path
     class="cls-2"
     d="m 86.532,162.41174 h 4.00346 a 1.671,1.671 0 0 1 1.0517,0.3139 1.92568,1.92568 0 0 1 0.60848,0.81283 l 6.27313,16.29332 q 0.3135,0.7944 0.59972,1.74577 0.28571,0.95136 0.54413,2.00425 a 22.9492,22.9492 0 0 1 1.0517,-3.75 l 6.2546,-16.29332 a 1.92321,1.92321 0 0 1 0.59045,-0.77572 1.594,1.594 0 0 1 1.0517,-0.351 h 4.00347 l -10.77491,26.712 h -4.48324 z"
     id="path30"
     inkscape:connector-curvature="0"
     style="fill:#38466d" />
  <path
     class="cls-2"
     d="m 135.68234,189.12374 h -3.8377 a 1.676,1.676 0 0 1 -1.061,-0.32318 1.83578,1.83578 0 0 1 -0.59972,-0.80356 l -1.99272,-5.44966 h -11.05131 l -1.99221,5.44966 a 1.75226,1.75226 0 0 1 -0.58119,0.77573 1.633,1.633 0 0 1 -1.061,0.351 h -3.85624 l 10.47942,-26.712 h 5.0737 z m -17.2694,-10.08623 h 8.50575 l -3.24725,-8.88553 q -0.22161,-0.59107 -0.489,-1.39476 -0.26794,-0.80369 -0.52611,-1.74577 -0.2579,0.94209 -0.50706,1.75505 -0.24941,0.813 -0.489,1.42233 z"
     id="path32"
     inkscape:connector-curvature="0"
     style="fill:#38466d" />
  <path
     class="cls-2"
     d="m 154.51976,162.41174 v 4.08248 h -8.026 v 22.62952 h -4.963 v -22.62952 h -8.06252 v -4.08248 z"
     id="path34"
     inkscape:connector-curvature="0"
     style="fill:#38466d" />
  <path
     class="cls-2"
     d="m 174.5,162.41174 v 3.9531 h -11.8266 v 7.40779 h 9.317 v 3.824 h -9.317 v 7.55546 H 174.5 v 3.97166 h -16.82617 v -26.712 z"
     id="path36"
     inkscape:connector-curvature="0"
     style="fill:#38466d" />
  <path
     class="cls-1"
     d="m 56.2352,196.88977 a 0.88032,0.88032 0 0 1 -0.21767,0.24809 0.49064,0.49064 0 0 1 -0.29414,0.0828 0.72064,0.72064 0 0 1 -0.34257,-0.10005 q -0.18274,-0.0998 -0.415,-0.224 a 3.48342,3.48342 0 0 0 -0.52914,-0.224 2.1257,2.1257 0 0 0 -0.67749,-0.0998 1.46187,1.46187 0 0 0 -0.97876,0.27907 0.94724,0.94724 0 0 0 -0.32166,0.75442 0.69358,0.69358 0 0 0 0.19371,0.503 1.6635,1.6635 0 0 0 0.50824,0.34459 5.48883,5.48883 0 0 0 0.71929,0.26535 q 0.40451,0.12036 0.82685,0.26866 a 7.46143,7.46143 0 0 1 0.82634,0.34788 2.76357,2.76357 0 0 1 0.71928,0.50989 2.376,2.376 0 0 1 0.50825,0.75468 2.67666,2.67666 0 0 1 0.19371,1.07132 3.47541,3.47541 0 0 1 -0.24214,1.3024 3.04129,3.04129 0 0 1 -0.702,1.05787 3.2589,3.2589 0 0 1 -1.13424,0.70973 4.26073,4.26073 0 0 1 -1.53186,0.25825 4.92682,4.92682 0 0 1 -0.95786,-0.0965 5.66478,5.66478 0 0 1 -0.9441,-0.27221 5.49247,5.49247 0 0 1 -0.85794,-0.4167 3.6335,3.6335 0 0 1 -0.69839,-0.53757 l 0.69176,-1.08859 a 0.55842,0.55842 0 0 1 0.2141,-0.19985 0.60929,0.60929 0 0 1 0.29771,-0.0759 0.78821,0.78821 0 0 1 0.418,0.131 q 0.21105,0.131 0.47766,0.28922 a 3.84942,3.84942 0 0 0 0.61172,0.28948 2.30291,2.30291 0 0 0 0.81615,0.131 1.561,1.561 0 0 0 0.98946,-0.27907 1.06117,1.06117 0 0 0 0.35276,-0.88545 0.83639,0.83639 0 0 0 -0.19371,-0.5721 1.50231,1.50231 0 0 0 -0.50875,-0.36515 4.68791,4.68791 0 0 0 -0.71572,-0.255 q -0.40144,-0.11007 -0.82277,-0.24453 a 6.0097,6.0097 0 0 1 -0.82328,-0.33087 2.58749,2.58749 0 0 1 -0.71572,-0.51674 2.41838,2.41838 0 0 1 -0.50875,-0.79937 3.16522,3.16522 0 0 1 -0.1932,-1.18153 2.79865,2.79865 0 0 1 0.22786,-1.10256 2.85013,2.85013 0 0 1 0.67086,-0.95782 3.30438,3.30438 0 0 1 1.08633,-0.6719 4.02433,4.02433 0 0 1 1.47323,-0.25139 5.54215,5.54215 0 0 1 0.9023,0.0724 4.76794,4.76794 0 0 1 0.83348,0.21355 4.59672,4.59672 0 0 1 0.73661,0.33748 3.39232,3.39232 0 0 1 0.61224,0.44463 z"
     id="path38"
     inkscape:connector-curvature="0"
     style="fill:#9ba2b5" />
  <path
     class="cls-1"
     d="m 72.55808,194.85022 v 1.84657 h -2.83586 v 8.193 h -2.33781 v -8.193 h -2.83535 v -1.84657 z"
     id="path40"
     inkscape:connector-curvature="0"
     style="fill:#9ba2b5" />
  <path
     class="cls-1"
     d="m 90.18189,199.86658 a 5.37784,5.37784 0 0 1 -0.37723,2.02585 4.79329,4.79329 0 0 1 -2.711,2.71475 6.03938,6.03938 0 0 1 -4.28513,0 4.80177,4.80177 0 0 1 -2.72167,-2.71475 5.63544,5.63544 0 0 1 0,-4.05169 4.81854,4.81854 0 0 1 1.06542,-1.62616 4.93071,4.93071 0 0 1 1.65625,-1.082 5.65415,5.65415 0 0 1 2.14409,-0.39257 5.58778,5.58778 0 0 1 2.141,0.39613 4.94531,4.94531 0 0 1 1.64962,1.08529 4.84691,4.84691 0 0 1 1.06135,1.62616 5.35932,5.35932 0 0 1 0.3773,2.01899 z m -2.39338,0 a 4.32985,4.32985 0 0 0 -0.19371,-1.34024 2.83379,2.83379 0 0 0 -0.55667,-1.00962 2.40366,2.40366 0 0 0 -0.88853,-0.6338 3.07035,3.07035 0 0 0 -1.197,-0.22041 3.11272,3.11272 0 0 0 -1.20662,0.22041 2.39779,2.39779 0 0 0 -0.89261,0.6338 2.84148,2.84148 0 0 0 -0.55667,1.00962 4.75678,4.75678 0 0 0 0,2.68734 2.838,2.838 0 0 0 0.55667,1.00936 2.3619,2.3619 0 0 0 0.89261,0.63051 3.15617,3.15617 0 0 0 1.20662,0.21711 3.11312,3.11312 0 0 0 1.197,-0.21711 2.36734,2.36734 0 0 0 0.88853,-0.63051 2.83035,2.83035 0 0 0 0.55667,-1.00936 4.35421,4.35421 0 0 0 0.19371,-1.3471 z"
     id="path42"
     inkscape:connector-curvature="0"
     style="fill:#9ba2b5" />
  <path
     class="cls-1"
     d="m 100.76372,201.17584 v 3.714 h -2.33781 v -10.03962 h 3.27885 a 6.748,6.748 0 0 1 1.86372,0.224 3.50711,3.50711 0 0 1 1.25914,0.62365 2.36066,2.36066 0 0 1 0.70858,0.94385 3.11284,3.11284 0 0 1 0.22124,1.18534 3.186,3.186 0 0 1 -0.131,0.92329 2.79249,2.79249 0 0 1 -0.391,0.80267 3.01514,3.01514 0 0 1 -0.63619,0.65818 3.388,3.388 0 0 1 -0.86814,0.47536 2.21816,2.21816 0 0 1 0.43942,0.28948 1.73117,1.73117 0 0 1 0.35582,0.42025 l 2.1441,3.49355 h -2.11606 a 0.89937,0.89937 0 0 1 -0.84418,-0.44107 l -1.67358,-2.9146 a 0.70365,0.70365 0 0 0 -0.25948,-0.27576 0.8717,0.8717 0 0 0 -0.41852,-0.0825 z m 0,-1.60559 h 0.941 a 2.41085,2.41085 0 0 0 0.81257,-0.12062 1.46889,1.46889 0 0 0 0.55,-0.33417 1.27377,1.27377 0 0 0 0.311,-0.49948 1.90694,1.90694 0 0 0 0.0969,-0.61679 1.2909,1.2909 0 0 0 -0.43228,-1.03349 2.01637,2.01637 0 0 0 -1.33815,-0.37226 h -0.941 z"
     id="path44"
     inkscape:connector-curvature="0"
     style="fill:#9ba2b5" />
  <path
     class="cls-1"
     d="m 124.0526,204.8898 h -1.81224 a 0.8376,0.8376 0 0 1 -0.5011,-0.14118 0.72811,0.72811 0 0 1 -0.27324,-0.36185 l -0.5949,-1.75008 h -3.832 l -0.59491,1.75008 a 0.80133,0.80133 0 0 1 -0.76057,0.503 h -1.826 l 3.90077,-10.03958 h 2.39338 z m -6.4741,-3.83813 h 2.75328 l -0.92727,-2.74929 q -0.0895,-0.26167 -0.21054,-0.61679 -0.12158,-0.35461 -0.23857,-0.76814 -0.11088,0.42012 -0.22838,0.77855 -0.11777,0.35841 -0.22124,0.62009 z"
     id="path46"
     inkscape:connector-curvature="0"
     style="fill:#9ba2b5" />
  <path
     class="cls-1"
     d="m 136.39826,203.20854 a 3.99036,3.99036 0 0 0 0.85743,-0.0828 4.20782,4.20782 0 0 0 0.70553,-0.22041 v -1.52281 h -0.9961 a 0.4843,0.4843 0 0 1 -0.34562,-0.11732 0.3884,0.3884 0 0 1 -0.12438,-0.29608 v -1.28183 h 3.58267 v 4.23782 a 5.28366,5.28366 0 0 1 -0.80595,0.48576 5.19945,5.19945 0 0 1 -0.8921,0.33418 6.6679,6.6679 0 0 1 -1.00986,0.193 10.032,10.032 0 0 1 -1.15157,0.062 5.29976,5.29976 0 0 1 -2.04724,-0.38927 4.88869,4.88869 0 0 1 -2.70791,-2.701 5.27313,5.27313 0 0 1 -0.391,-2.04311 5.53713,5.53713 0 0 1 0.37366,-2.06368 4.64283,4.64283 0 0 1 1.06848,-1.62286 4.84991,4.84991 0 0 1 1.68072,-1.06117 6.09547,6.09547 0 0 1 2.20323,-0.37886 6.42666,6.42666 0 0 1 1.18267,0.10335 5.84707,5.84707 0 0 1 1.02,0.28237 4.70316,4.70316 0 0 1 0.85438,0.42736 4.6173,4.6173 0 0 1 0.69125,0.53731 l -0.67749,1.02689 a 0.75275,0.75275 0 0 1 -0.23195,0.22727 0.55067,0.55067 0 0 1 -0.29362,0.0828 0.81277,0.81277 0 0 1 -0.42923,-0.13788 q -0.27681,-0.16532 -0.522,-0.28593 a 3.22773,3.22773 0 0 0 -0.50161,-0.19654 3.32679,3.32679 0 0 0 -0.53934,-0.1102 5.339,5.339 0 0 0 -0.63619,-0.0343 2.91013,2.91013 0 0 0 -1.18267,0.23082 2.52981,2.52981 0 0 0 -0.89567,0.65107 2.94214,2.94214 0 0 0 -0.57095,1.00937 4.0602,4.0602 0 0 0 -0.20034,1.31281 4.20269,4.20269 0 0 0 0.22125,1.41946 3.04589,3.04589 0 0 0 0.61223,1.04746 2.60041,2.60041 0 0 0 0.92676,0.65108 3.01,3.01 0 0 0 1.17253,0.22385 z"
     id="path48"
     inkscape:connector-curvature="0"
     style="fill:#9ba2b5" />
  <path
     class="cls-1"
     d="m 155.114,194.85022 v 1.79146 h -4.13577 v 2.34275 h 3.16771 v 1.72266 h -3.16771 v 2.39125 h 4.13577 v 1.79146 h -6.48786 v -10.03958 z"
     id="path50"
     inkscape:connector-curvature="0"
     style="fill:#9ba2b5" />
</svg>
